{
    "frames": [
        { "media_type": "video", "key_frame": 1, "pkt_pts": 399600, "pkt_pts_time": "4.440000", "pkt_dts": 399600, "pkt_dts_time": "4.440000", "best_effort_timestamp": 399600, "best_effort_timestamp_time": "4.440000", "pkt_pos": "628672", "pkt_size": "691200", "width": 640, "height": 360, "pix_fmt": "rgb24", "sample_aspect_ratio": "1:1", "pict_type": "I", "coded_picture_number": 0, "display_picture_number": 0, "interlaced_frame": 0, "top_field_first": 0, "repeat_pict": 0,
            "tags": { "lavfi.scene_score": "0.604181" } },
        { "media_type": "video", "key_frame": 1, "pkt_pts": 759600, "pkt_pts_time": "8.440000", "pkt_dts": 759600, "pkt_dts_time": "8.440000", "best_effort_timestamp": 759600, "best_effort_timestamp_time": "8.440000", "pkt_pos": "1459820", "pkt_size": "691200", "width": 640, "height": 360, "pix_fmt": "rgb24", "sample_aspect_ratio": "1:1", "pict_type": "I", "coded_picture_number": 0, "display_picture_number": 0, "interlaced_frame": 0, "top_field_first": 0, "repeat_pict": 0,
            "tags": { "lavfi.scene_score": "0.778689" } },
        { "media_type": "video", "key_frame": 1, "pkt_pts": 1443600, "pkt_pts_time": "16.040000", "pkt_dts": 1443600, "pkt_dts_time": "16.040000", "best_effort_timestamp": 1443600, "best_effort_timestamp_time": "16.040000", "pkt_pos": "3055752", "pkt_size": "691200", "width": 640, "height": 360, "pix_fmt": "rgb24", "sample_aspect_ratio": "1:1", "pict_type": "I", "coded_picture_number": 0, "display_picture_number": 0, "interlaced_frame": 0, "top_field_first": 0, "repeat_pict": 0,
            "tags": { "lavfi.scene_score": "0.696179" } },
        { "media_type": "video", "key_frame": 1, "pkt_pts": 2746800, "pkt_pts_time": "30.520000", "pkt_dts": 2746800, "pkt_dts_time": "30.520000", "best_effort_timestamp": 2746800, "best_effort_timestamp_time": "30.520000", "pkt_pos": "6083116", "pkt_size": "691200", "width": 640, "height": 360, "pix_fmt": "rgb24", "sample_aspect_ratio": "1:1", "pict_type": "I", "coded_picture_number": 0, "display_picture_number": 0, "interlaced_frame": 0, "top_field_first": 0, "repeat_pict": 0,
            "tags": { "lavfi.scene_score": "0.655528" } },
        { "media_type": "video", "key_frame": 1, "pkt_pts": 4716000, "pkt_pts_time": "52.400000", "pkt_dts": 4716000, "pkt_dts_time": "52.400000", "best_effort_timestamp": 4716000, "best_effort_timestamp_time": "52.400000", "pkt_pos": "10599628", "pkt_size": "691200", "width": 640, "height": 360, "pix_fmt": "rgb24", "sample_aspect_ratio": "1:1", "pict_type": "I", "coded_picture_number": 0, "display_picture_number": 0, "interlaced_frame": 0, "top_field_first": 0, "repeat_pict": 0,
            "tags": { "lavfi.scene_score": "0.837329" } },
        { "media_type": "video", "key_frame": 1, "pkt_pts": 5281200, "pkt_pts_time": "58.680000", "pkt_dts": 5281200, "pkt_dts_time": "58.680000", "best_effort_timestamp": 5281200, "best_effort_timestamp_time": "58.680000", "pkt_pos": "11979548", "pkt_size": "691200", "width": 640, "height": 360, "pix_fmt": "rgb24", "sample_aspect_ratio": "1:1", "pict_type": "I", "coded_picture_number": 0, "display_picture_number": 0, "interlaced_frame": 0, "top_field_first": 0, "repeat_pict": 0,
            "tags": { "lavfi.scene_score": "0.647367" } },
        { "media_type": "video", "key_frame": 1, "pkt_pts": 6069600, "pkt_pts_time": "67.440000", "pkt_dts": 6069600, "pkt_dts_time": "67.440000", "best_effort_timestamp": 6069600, "best_effort_timestamp_time": "67.440000", "pkt_pos": "13802020", "pkt_size": "691200", "width": 640, "height": 360, "pix_fmt": "rgb24", "sample_aspect_ratio": "1:1", "pict_type": "I", "coded_picture_number": 0, "display_picture_number": 0, "interlaced_frame": 0, "top_field_first": 0, "repeat_pict": 0,
            "tags": { "lavfi.scene_score": "0.736537" } },
        { "media_type": "video", "key_frame": 1, "pkt_pts": 21106800, "pkt_pts_time": "234.520000", "pkt_dts": 21106800, "pkt_dts_time": "234.520000", "best_effort_timestamp": 21106800, "best_effort_timestamp_time": "234.520000", "pkt_pos": "48796528", "pkt_size": "691200", "width": 640, "height": 360, "pix_fmt": "rgb24", "sample_aspect_ratio": "1:1", "pict_type": "I", "coded_picture_number": 0, "display_picture_number": 0, "interlaced_frame": 0, "top_field_first": 0, "repeat_pict": 0,
            "tags": { "lavfi.scene_score": "0.673468" } },
        { "media_type": "video", "key_frame": 1, "pkt_pts": 24483600, "pkt_pts_time": "272.040000", "pkt_dts": 24483600, "pkt_dts_time": "272.040000", "best_effort_timestamp": 24483600, "best_effort_timestamp_time": "272.040000", "pkt_pos": "56663200", "pkt_size": "691200", "width": 640, "height": 360, "pix_fmt": "rgb24", "sample_aspect_ratio": "1:1", "pict_type": "I", "coded_picture_number": 0, "display_picture_number": 0, "interlaced_frame": 0, "top_field_first": 0, "repeat_pict": 0,
            "tags": { "lavfi.scene_score": "0.748645" } },
        { "media_type": "video", "key_frame": 1, "pkt_pts": 24984000, "pkt_pts_time": "277.600000", "pkt_dts": 24984000, "pkt_dts_time": "277.600000", "best_effort_timestamp": 24984000, "best_effort_timestamp_time": "277.600000", "pkt_pos": "57831056", "pkt_size": "691200", "width": 640, "height": 360, "pix_fmt": "rgb24", "sample_aspect_ratio": "1:1", "pict_type": "I", "coded_picture_number": 0, "display_picture_number": 0, "interlaced_frame": 0, "top_field_first": 0, "repeat_pict": 0,
            "tags": { "lavfi.scene_score": "0.621569" } },
        { "media_type": "video", "key_frame": 1, "pkt_pts": 25545600, "pkt_pts_time": "283.840000", "pkt_dts": 25545600, "pkt_dts_time": "283.840000", "best_effort_timestamp": 25545600, "best_effort_timestamp_time": "283.840000", "pkt_pos": "59176196", "pkt_size": "691200", "width": 640, "height": 360, "pix_fmt": "rgb24", "sample_aspect_ratio": "1:1", "pict_type": "I", "coded_picture_number": 0, "display_picture_number": 0, "interlaced_frame": 0, "top_field_first": 0, "repeat_pict": 0,
            "tags": { "lavfi.scene_score": "1.000000" } },
        { "media_type": "video", "key_frame": 1, "pkt_pts": 26312400, "pkt_pts_time": "292.360000", "pkt_dts": 26312400, "pkt_dts_time": "292.360000", "best_effort_timestamp": 26312400, "best_effort_timestamp_time": "292.360000", "pkt_pos": "60950540", "pkt_size": "691200", "width": 640, "height": 360, "pix_fmt": "rgb24", "sample_aspect_ratio": "1:1", "pict_type": "I", "coded_picture_number": 0, "display_picture_number": 0, "interlaced_frame": 0, "top_field_first": 0, "repeat_pict": 0,
            "tags": { "lavfi.scene_score": "0.942605" } },
        { "media_type": "video", "key_frame": 1, "pkt_pts": 26938800, "pkt_pts_time": "299.320000", "pkt_dts": 26938800, "pkt_dts_time": "299.320000", "best_effort_timestamp": 26938800, "best_effort_timestamp_time": "299.320000", "pkt_pos": "62427656", "pkt_size": "691200", "width": 640, "height": 360, "pix_fmt": "rgb24", "sample_aspect_ratio": "1:1", "pict_type": "I", "coded_picture_number": 0, "display_picture_number": 0, "interlaced_frame": 0, "top_field_first": 0, "repeat_pict": 0,
            "tags": { "lavfi.scene_score": "0.814780" } },
        { "media_type": "video", "key_frame": 1, "pkt_pts": 27759600, "pkt_pts_time": "308.440000", "pkt_dts": 27759600, "pkt_dts_time": "308.440000", "best_effort_timestamp": 27759600, "best_effort_timestamp_time": "308.440000", "pkt_pos": "64298820", "pkt_size": "691200", "width": 640, "height": 360, "pix_fmt": "rgb24", "sample_aspect_ratio": "1:1", "pict_type": "I", "coded_picture_number": 0, "display_picture_number": 0, "interlaced_frame": 0, "top_field_first": 0, "repeat_pict": 0,
            "tags": { "lavfi.scene_score": "0.711110" } },
        { "media_type": "video", "key_frame": 1, "pkt_pts": 28310400, "pkt_pts_time": "314.560000", "pkt_dts": 28310400, "pkt_dts_time": "314.560000", "best_effort_timestamp": 28310400, "best_effort_timestamp_time": "314.560000", "pkt_pos": "65585680", "pkt_size": "691200", "width": 640, "height": 360, "pix_fmt": "rgb24", "sample_aspect_ratio": "1:1", "pict_type": "I", "coded_picture_number": 0, "display_picture_number": 0, "interlaced_frame": 0, "top_field_first": 0, "repeat_pict": 0,
            "tags": { "lavfi.scene_score": "0.739928" } },
        { "media_type": "video", "key_frame": 1, "pkt_pts": 28659600, "pkt_pts_time": "318.440000", "pkt_dts": 28659600, "pkt_dts_time": "318.440000", "best_effort_timestamp": 28659600, "best_effort_timestamp_time": "318.440000", "pkt_pos": "66366256", "pkt_size": "691200", "width": 640, "height": 360, "pix_fmt": "rgb24", "sample_aspect_ratio": "1:1", "pict_type": "I", "coded_picture_number": 0, "display_picture_number": 0, "interlaced_frame": 0, "top_field_first": 0, "repeat_pict": 0,
            "tags": { "lavfi.scene_score": "0.660292" } },
        { "media_type": "video", "key_frame": 1, "pkt_pts": 29430000, "pkt_pts_time": "327.000000", "pkt_dts": 29430000, "pkt_dts_time": "327.000000", "best_effort_timestamp": 29430000, "best_effort_timestamp_time": "327.000000", "pkt_pos": "68198128", "pkt_size": "691200", "width": 640, "height": 360, "pix_fmt": "rgb24", "sample_aspect_ratio": "1:1", "pict_type": "I", "coded_picture_number": 0, "display_picture_number": 0, "interlaced_frame": 0, "top_field_first": 0, "repeat_pict": 0,
            "tags": { "lavfi.scene_score": "0.767574" } },
        { "media_type": "video", "key_frame": 1, "pkt_pts": 29959200, "pkt_pts_time": "332.880000", "pkt_dts": 29959200, "pkt_dts_time": "332.880000", "best_effort_timestamp": 29959200, "best_effort_timestamp_time": "332.880000", "pkt_pos": "69425580", "pkt_size": "691200", "width": 640, "height": 360, "pix_fmt": "rgb24", "sample_aspect_ratio": "1:1", "pict_type": "I", "coded_picture_number": 0, "display_picture_number": 0, "interlaced_frame": 0, "top_field_first": 0, "repeat_pict": 0,
            "tags": { "lavfi.scene_score": "0.789443" } },
        { "media_type": "video", "key_frame": 1, "pkt_pts": 31939200, "pkt_pts_time": "354.880000", "pkt_dts": 31939200, "pkt_dts_time": "354.880000", "best_effort_timestamp": 31939200, "best_effort_timestamp_time": "354.880000", "pkt_pos": "74021428", "pkt_size": "691200", "width": 640, "height": 360, "pix_fmt": "rgb24", "sample_aspect_ratio": "1:1", "pict_type": "I", "coded_picture_number": 0, "display_picture_number": 0, "interlaced_frame": 0, "top_field_first": 0, "repeat_pict": 0,
            "tags": { "lavfi.scene_score": "0.895120" } },
        { "media_type": "video", "key_frame": 1, "pkt_pts": 32497200, "pkt_pts_time": "361.080000", "pkt_dts": 32497200, "pkt_dts_time": "361.080000", "best_effort_timestamp": 32497200, "best_effort_timestamp_time": "361.080000", "pkt_pos": "75318628", "pkt_size": "691200", "width": 640, "height": 360, "pix_fmt": "rgb24", "sample_aspect_ratio": "1:1", "pict_type": "I", "coded_picture_number": 0, "display_picture_number": 0, "interlaced_frame": 0, "top_field_first": 0, "repeat_pict": 0,
            "tags": { "lavfi.scene_score": "0.874647" } },
        { "media_type": "video", "key_frame": 1, "pkt_pts": 32709600, "pkt_pts_time": "363.440000", "pkt_dts": 32709600, "pkt_dts_time": "363.440000", "best_effort_timestamp": 32709600, "best_effort_timestamp_time": "363.440000", "pkt_pos": "75771332", "pkt_size": "691200", "width": 640, "height": 360, "pix_fmt": "rgb24", "sample_aspect_ratio": "1:1", "pict_type": "I", "coded_picture_number": 0, "display_picture_number": 0, "interlaced_frame": 0, "top_field_first": 0, "repeat_pict": 0,
            "tags": { "lavfi.scene_score": "1.000000" } },
        { "media_type": "video", "key_frame": 1, "pkt_pts": 33382800, "pkt_pts_time": "370.920000", "pkt_dts": 33382800, "pkt_dts_time": "370.920000", "best_effort_timestamp": 33382800, "best_effort_timestamp_time": "370.920000", "pkt_duration": 3600, "pkt_duration_time": "0.040000", "pkt_pos": "77377604", "pkt_size": "691200", "width": 640, "height": 360, "pix_fmt": "rgb24", "sample_aspect_ratio": "1:1", "pict_type": "I", "coded_picture_number": 0, "display_picture_number": 0, "interlaced_frame": 0, "top_field_first": 0, "repeat_pict": 0,
            "tags": { "lavfi.scene_score": "0.854025" } },
        { "media_type": "video", "key_frame": 1, "pkt_pts": 34322400, "pkt_pts_time": "381.360000", "pkt_dts": 34322400, "pkt_dts_time": "381.360000", "best_effort_timestamp": 34322400, "best_effort_timestamp_time": "381.360000", "pkt_duration": 3600, "pkt_duration_time": "0.040000", "pkt_pos": "79594124", "pkt_size": "691200", "width": 640, "height": 360, "pix_fmt": "rgb24", "sample_aspect_ratio": "1:1", "pict_type": "I", "coded_picture_number": 0, "display_picture_number": 0, "interlaced_frame": 0, "top_field_first": 0, "repeat_pict": 0,
            "tags": { "lavfi.scene_score": "0.734277" } }
    ]
}
